<svg width="1440" height="269" viewBox="0 0 1440 269" fill="none" xmlns="http://www.w3.org/2000/svg">
<mask id="mask0" mask-type="alpha" maskUnits="userSpaceOnUse" x="0" y="0" width="1440" height="269">
<rect width="1440" height="269" fill="black"/>
</mask>
<g mask="url(#mask0)">
<path d="M914.9 236.389L938.976 237.929L927.19 219.048H917.281C917.642 219.529 917.954 220.01 918.219 220.491C923.871 230.352 922.909 231.002 908.478 227.033C903.235 225.59 897.558 222.56 893.109 219.072H880.987C890.656 233.984 893.999 235.043 914.9 236.389Z" fill="#BF2C2F"/>
<path d="M901.407 303.013L888.732 282.689C876.706 263.424 874.806 262.293 851.98 260.826L827.905 259.287L839.281 277.518L881.155 301.69L901.407 303.013ZM870.933 292.094C862.13 289.664 852.101 282.761 848.637 276.749C842.985 266.887 843.947 266.238 858.378 270.206C867.181 272.636 877.211 279.539 880.674 285.551C886.326 295.413 885.364 296.062 870.933 292.094Z" fill="#20C7AB"/>
<path d="M799.355 254.476L802 249.883L808.11 259.527L823.719 268.547L811.669 250.027L845.991 252.48L880.313 254.933L898.977 283.603L917.642 312.273L896.885 310.782L911.893 319.441L924.04 320.09L921.274 324.876L931.712 330.913L996.291 219.048H973.37C974.741 221.068 976.809 222.993 979.118 224.628L975.053 231.651C971.325 229.126 968.127 225.278 963.869 219.024H953.551L968.559 242.883L965.457 248.271L946.985 219.048H936.883L955.187 247.189L920.865 244.735L886.543 242.282L871.438 219.048H861.24L878.317 246.058L840.772 244.086C840.772 244.086 815.012 242.715 806.402 242.282L809.36 237.135L837.429 238.217L868.335 239.396L855.011 219.048H845.39L854.145 230.761L832.979 229.342C825.042 228.813 819.871 228.043 815.662 226.264L819.655 219.337C821.795 220.443 823.984 221.333 826.052 221.622C833.027 222.632 835.264 222.391 834.158 219.048H805.897L788.916 248.439L799.355 254.476ZM934.141 267.513C941.862 268.427 947.226 269.677 951.795 272.01L948.115 278.36C945.71 277.013 943.185 275.955 940.828 275.594C931.303 274.199 930.582 275.161 935.224 283.218C936.571 285.576 938.879 287.836 941.549 289.712L937.484 296.736C933.492 294.018 930.101 289.785 925.338 282.689L913.529 265.059L934.141 267.513ZM926.108 253.13L961.608 255.006L958.458 260.441L929.571 258.806L899.002 257.074L915.477 283.242L931.039 307.968L927.936 313.355L908.622 282.81L888.587 251.133L926.108 253.13Z" fill="#FFA227"/>
<path d="M920.889 325.526L892.003 323.89L861.433 322.158L877.908 348.327L893.47 373.052L890.367 378.44L871.054 347.894L851.018 316.218L888.563 318.19L911.893 319.416L896.885 310.758L883.344 309.796L849.022 307.342L830.334 278.697L823.719 268.547L808.11 259.527L820.713 279.466L840.748 311.143L803.203 309.17C803.203 309.17 777.444 307.799 768.833 307.366L771.791 302.219L799.86 303.302L830.767 304.48L813.978 278.865L798.73 255.607L799.355 254.501L788.916 248.464L713.778 378.608L724.217 384.645L726.863 380.051L732.972 389.696L748.581 398.715L736.532 380.195L770.854 382.649L805.175 385.102L823.84 413.772L842.504 442.442L821.747 440.974L836.756 449.633L848.902 450.283L846.136 455.069L856.574 461.106L931.712 330.961L921.274 324.876L920.889 325.526ZM795.386 294.427C787.449 293.897 782.278 293.128 778.069 291.348L782.062 284.421C784.202 285.527 786.391 286.417 788.459 286.706C797.984 288.101 798.706 287.139 794.064 279.082C792.861 276.965 790.889 274.921 788.556 273.165L792.26 266.743C796.204 269.509 799.788 273.405 804.141 279.226L816.552 295.846L795.386 294.427ZM757.817 359.511C749.88 358.982 744.709 358.212 740.5 356.432L744.493 349.505C746.633 350.612 748.822 351.502 750.89 351.79C760.415 353.185 761.137 352.223 756.495 344.166C755.292 342.049 753.32 340.005 750.987 338.249L754.691 331.827C758.635 334.593 762.219 338.49 766.572 344.31L778.983 360.93L757.817 359.511ZM765.634 374.231C765.634 374.231 739.875 372.86 731.264 372.427L734.223 367.28L762.291 368.362L793.198 369.541L776.409 343.925L761.161 320.667L764.456 314.967L783.168 344.551L803.203 376.227L765.634 374.231ZM845.751 374.88L811.429 372.427L792.765 343.757L774.101 315.087L808.422 317.54L842.744 319.994L861.409 348.664L880.073 377.333L845.751 374.88ZM859.004 397.657C866.724 398.571 872.088 399.822 876.658 402.155L872.978 408.504C870.572 407.158 868.047 406.099 865.69 405.739C856.165 404.344 855.444 405.306 860.086 413.363C861.433 415.72 863.742 417.981 866.412 419.857L862.347 426.88C858.354 424.162 854.963 419.929 850.201 412.834L838.391 395.204L859.004 397.657ZM850.97 383.298L886.471 385.174L883.32 390.61L854.434 388.974L823.864 387.243L840.339 413.411L855.901 438.136L852.798 443.524L833.485 412.978L813.449 381.302L850.97 383.298ZM896.572 332.573C904.293 333.487 909.657 334.737 914.227 337.071L910.547 343.42C908.141 342.073 905.616 341.015 903.259 340.654C893.734 339.259 893.013 340.221 897.655 348.279C899.002 350.636 901.311 352.897 903.98 354.773L899.916 361.796C895.923 359.078 892.532 354.845 887.77 347.75L875.96 330.12L896.572 332.573Z" fill="#FFA227"/>
<path d="M247.245 251.278C248.52 259.599 251.478 261.716 259.704 260.177C267.929 258.613 270.094 255.511 268.843 247.189C267.569 238.867 264.61 236.75 256.385 238.29C248.159 239.853 245.994 242.956 247.245 251.278Z" fill="#20C7AB"/>
<path d="M229.302 232.637C227.763 235.283 216.915 240.454 205.202 244.11L183.892 250.748L184.109 251.518L189.328 254.525L189.039 253.466L210.133 247.381L231.226 241.296L235.868 259.96L240.51 278.624L263.504 272.539L286.497 266.454L281.23 243.1L275.963 219.746L257.058 224.556L238.153 229.366L235.219 219.048H229.446C230.264 225.71 230.264 230.978 229.302 232.637ZM258.212 228.765C271.994 225.542 273.197 226.528 277.069 244.447L281.182 263.592L262.109 268.451C243.613 273.165 242.939 272.852 240.077 258.277C236.301 239.059 239.981 233.046 258.212 228.765Z" fill="#FFA227"/>
<path d="M223.938 264.65C222.664 256.329 219.705 254.212 211.48 255.751C205.996 256.786 203.254 258.565 202.364 262.077L222.76 273.838C224.299 271.818 224.588 268.932 223.938 264.65Z" fill="#388CBA"/>
<path d="M171.145 244.038L176.075 235.5L177.807 242.451L200.801 236.365L223.794 230.28L221.221 219.048H216.675L218.479 227.418L199.406 232.277C185.191 235.884 181.511 236.462 179.274 229.968L185.528 219.144C187.187 224.027 190.362 225.253 197.024 224.003C201.739 223.113 204.481 221.694 205.683 219.072H171.626L160.682 238.025L171.145 244.038Z" fill="#BF2C2F"/>
<path d="M289.889 242.234C291.38 248.872 292.318 255.439 292.607 260.489L285.054 273.574C280.533 275.834 274.375 278.312 267.881 280.332L246.571 286.97L246.788 287.74L252.007 290.747L251.718 289.688L272.812 283.603L280.533 281.39L274.471 291.901C274.375 291.925 274.279 291.925 274.183 291.949C268.699 292.983 265.957 294.763 265.067 298.275L269.372 300.752L269.396 300.776L279.811 306.789L330.464 219.048H316.538L312.04 226.841C311.944 226.865 311.848 226.865 311.752 226.889C303.526 228.452 301.361 231.555 302.612 239.877C302.756 240.767 302.925 241.561 303.093 242.33L297.152 252.6L295.06 245.144L289.287 224.652L308.649 219.048H290.49L284.982 220.443L289.889 242.234Z" fill="#BF2C2F"/>
<path d="M222.76 273.838L202.364 262.077C201.931 263.833 201.931 265.973 202.34 268.739C203.615 277.061 206.573 279.178 214.799 277.638C218.767 276.869 221.317 275.738 222.76 273.838Z" fill="#388CBA"/>
<path d="M167.633 309.17L147.141 314.39L152.048 336.181C154.741 348.158 155.703 360.136 154.164 362.782C152.625 365.428 141.777 370.599 130.064 374.255L108.754 380.893L108.971 381.663L114.19 384.669L113.901 383.611L134.995 377.526L156.088 371.441L160.73 390.105L165.372 408.769L188.366 402.684L211.359 396.599L206.092 373.245L200.825 349.89L181.92 354.701L163.015 359.511L157.243 339.019L151.47 318.527L172.564 312.441L193.657 306.356L198.299 325.021L202.941 343.685L225.935 337.6L248.928 331.515L243.661 308.16L238.394 284.806L219.489 289.616L200.584 294.427L194.812 273.934L189.328 254.477L184.109 251.47L189.617 271.048C196.784 296.615 193.321 302.652 167.633 309.17ZM183.074 358.91C196.856 355.687 198.059 356.673 201.931 374.591L206.044 393.737L186.971 398.595C168.475 403.309 167.802 402.997 164.939 388.421C161.163 369.204 164.843 363.191 183.074 358.91ZM220.643 293.849C234.425 290.626 235.628 291.613 239.5 309.531L243.613 328.676L224.54 333.535C206.044 338.249 205.371 337.936 202.508 323.361C198.732 304.12 202.412 298.131 220.643 293.849Z" fill="#FFA227"/>
<path d="M85.5441 368.17L95.9826 374.207L100.913 365.668L102.645 372.619L125.638 366.534L148.632 360.449L143.365 337.095L138.097 313.74L129.655 315.881L138.506 300.56L140.238 307.511L163.232 301.426L186.225 295.341L180.958 271.986L175.69 248.632L167.248 250.772L171.169 243.99L160.73 237.953L85.5441 368.17ZM139.204 338.417L143.317 357.563L124.243 362.421C110.029 366.029 106.349 366.606 104.112 360.112L110.366 349.289C112.025 354.171 115.2 355.398 121.862 354.147C130.088 352.584 132.253 349.481 131.002 341.159C129.848 333.511 127.178 331.13 120.347 332.02L126.36 321.581C134.538 320.427 136.029 323.601 139.204 338.417ZM176.797 273.333L180.91 292.478L161.837 297.337C147.622 300.945 143.942 301.522 141.705 295.028L147.959 284.205C149.618 289.087 152.793 290.314 159.455 289.063C167.681 287.5 169.846 284.397 168.595 276.075C167.441 268.427 164.771 266.045 157.94 266.935L163.953 256.497C172.107 255.342 173.598 258.517 176.797 273.333Z" fill="#BF2C2F"/>
<path d="M1283.9 272.179L1278.3 252.288C1275.22 241.344 1269.23 232.541 1265 232.758C1260.77 232.95 1255.91 235.548 1254.17 238.53C1252.44 241.513 1254.27 243.797 1258.22 243.629C1262.3 243.437 1261.85 249.402 1257.18 257.483C1252.52 265.564 1247.56 268.932 1245.68 265.324C1243.88 261.812 1240.99 261.403 1239.26 264.386C1232.24 276.556 1244.63 283.507 1263.65 278.047L1283.9 272.179Z" fill="#FFA227"/>
<path d="M1277.82 226.023L1283.42 245.914C1286.5 256.858 1292.49 265.661 1296.72 265.444C1300.96 265.252 1305.81 262.654 1307.55 259.672C1309.28 256.689 1307.45 254.404 1303.51 254.573C1299.42 254.765 1299.87 248.8 1304.54 240.719C1309.21 232.637 1314.16 229.27 1316.04 232.878C1317.84 236.389 1320.73 236.798 1322.46 233.816C1326.74 226.384 1323.81 220.924 1316.54 219.024H1302.9C1301.34 219.313 1299.73 219.697 1298.07 220.179L1277.82 226.023Z" fill="#388CBA"/>
<path d="M1405.99 241.344C1419.51 236.702 1420.13 235.379 1415.64 220.491C1415.49 219.986 1415.35 219.529 1415.2 219.048H1402.5C1401.57 220.635 1400.53 222.415 1399.4 224.388C1386.22 247.213 1386.53 248.006 1405.99 241.344Z" fill="#BF2C2F"/>
<path d="M1441.35 221.886C1441.92 220.9 1442.45 219.962 1442.98 219.048H1423.24C1423.67 220.924 1424.29 223.161 1425.11 225.807C1429.83 241.464 1430.07 241.392 1441.35 221.886Z" fill="#FFA227"/>
<path d="M1399.04 253.659L1417.01 264.025C1429.42 242.499 1428.77 241.777 1409.67 248.319C1404.07 250.243 1400.77 251.638 1399.04 253.659Z" fill="#388CBA"/>
<path d="M1434.92 274.367L1444.16 258.373C1444.69 258.277 1445.17 258.204 1445.75 258.036C1449 257.098 1451.98 256.761 1454.77 256.978V248.92C1453.42 248.127 1452.15 247.333 1450.99 246.539L1454.77 239.973V219.048H1452.94L1424.49 268.33L1434.92 274.367Z" fill="#BF2C2F"/>
<path d="M1400.05 269.196C1404.76 284.854 1405.03 284.782 1416.28 265.3C1416.55 264.843 1416.77 264.482 1417.01 264.049L1399.04 253.683C1396.63 256.449 1397.43 260.489 1400.05 269.196Z" fill="#388CBA"/>
<path d="M1390.6 263.857C1385.88 248.199 1385.62 248.271 1374.36 267.753C1361.18 290.578 1361.49 291.372 1380.98 284.71C1394.47 280.092 1395.1 278.769 1390.6 263.857Z" fill="#BF2C2F"/>
<path d="M1425.23 294.018C1425.06 293.344 1424.82 292.815 1424.61 292.262L1434.92 274.391L1424.49 268.354L1349.35 398.475L1359.79 404.512L1369.02 388.517C1369.55 388.421 1370.03 388.349 1370.61 388.181C1385.59 383.875 1395.6 391.909 1401.54 413.05L1406.78 431.642L1415.95 436.934L1411.09 415.431C1406.71 396.046 1401.85 389.768 1385.28 382.023C1381.67 380.34 1378.55 378.512 1375.85 376.708L1380.25 369.059C1383.17 370.479 1386.32 372.282 1389.59 374.567C1404.6 385.054 1412.46 386.136 1431.44 380.22L1454.79 372.956V372.908L1448.35 349.12C1443.25 330.336 1437.71 323.409 1422.2 316.362C1418.88 314.871 1416 313.211 1413.47 311.576L1417.82 304.047C1420.49 305.394 1423.38 307.078 1426.34 309.194C1436.56 316.53 1444.02 319.176 1454.79 318.045V309.892C1439.04 312.634 1428.48 307.102 1425.23 294.018ZM1439.13 347.99L1444.43 366.799L1425.76 372.812C1405.29 379.402 1391.46 374.423 1387.66 359.078C1387.49 358.404 1387.25 357.875 1387.04 357.322L1406.59 323.457C1407.12 323.361 1407.6 323.289 1408.18 323.12C1423.16 318.791 1433.17 326.848 1439.13 347.99Z" fill="#BF2C2F"/>
<path d="M575.745 238.121L552.343 244.856L557.971 268.787L563.382 291.757L575.264 298.636L569.852 275.714L564.2 251.735L587.675 244.952L611.149 238.193L606.603 219.048H596.357L599.147 231.387L575.745 238.121Z" fill="#FFA227"/>
<path d="M572.161 232.301C587.867 227.779 590.465 226.841 589.382 219.048H577.356C575.384 220.924 571.608 222.752 568.024 223.426C563.502 224.291 560.977 223.209 559.293 219.048H548.975L553.304 237.712L572.161 232.301Z" fill="#FFA227"/>
<path d="M527.834 265.685C536.059 262.871 539.306 263.833 541.327 269.653C542.481 272.972 542.818 276.917 542.265 279.587L553.473 286.057C554.531 283.122 553.425 278.336 551.068 268.811L546.353 249.762L525.789 256.04L509.891 260.898L522.254 268.042C523.6 267.2 525.428 266.502 527.834 265.685Z" fill="#FFA227"/>
<path d="M585.125 276.123L582.071 261.981L594.385 259.094C601.144 257.507 608.335 253.346 610.356 249.883C612.809 245.625 606.82 245.505 592.1 249.498L570.189 255.439L575.095 276.58C577.789 288.197 581.83 296.038 584.091 293.994C586.304 291.925 586.785 283.892 585.125 276.123Z" fill="#388CBA"/>
<path d="M589.719 267.296C589.214 268.162 589.936 271.048 591.306 273.694C592.677 276.34 595.516 275.522 597.632 271.866C599.749 268.21 599.027 265.324 596.045 265.468C593.062 265.613 590.224 266.43 589.719 267.296Z" fill="#20C7AB"/>
<path d="M621.588 228.957C623.055 227.611 623.777 223.738 623.632 219.048H614.685C617.09 226.312 619.856 230.545 621.588 228.957Z" fill="#388CBA"/>
<path d="M536.54 236.438L524.226 239.324C517.467 240.911 510.276 245.072 508.255 248.536C505.802 252.793 511.791 252.913 526.511 248.92L548.446 242.98L543.539 221.838C543.323 220.876 543.082 219.938 542.842 219.048H532.909C533.053 220.13 533.245 221.213 533.486 222.295L536.54 236.438Z" fill="#388CBA"/>
<path d="M528.868 231.122C529.373 230.256 528.651 227.37 527.28 224.724C525.909 222.079 523.071 222.896 520.955 226.552C518.838 230.208 519.559 233.094 522.542 232.95C525.524 232.806 528.387 231.988 528.868 231.122Z" fill="#BF2C2F"/>
<path d="M563.598 292.695L545.03 298.467L526.462 304.24L521.748 286.802C518.381 274.343 517.828 270.615 522.253 267.994L509.891 260.85L505.225 262.269L512.224 289.352L518.116 312.153L522.374 310.974C522.374 310.974 523.119 314.149 523.384 315.207L547.363 308.064L575.528 299.67L575.288 298.612L563.406 291.757L563.598 292.695Z" fill="#FFA227"/>
<path d="M495.893 287.428L498.947 301.57L486.633 304.456C479.874 306.044 472.683 310.205 470.662 313.668C468.209 317.925 474.198 318.046 488.918 314.053L510.829 308.112L505.922 286.971C503.228 275.353 499.188 267.513 496.927 269.557C494.69 271.625 494.209 279.659 495.893 287.428Z" fill="#388CBA"/>
<path d="M460.104 232.349L473.476 240.069L473.717 239.685L486.031 219.048H466.646C466.405 222.175 464.144 226.071 460.152 232.301C460.128 232.301 460.104 232.325 460.104 232.349Z" fill="#FFA227"/>
<path d="M437.711 219.409L451.253 227.226H451.277C453.08 224.796 453.489 221.67 452.503 219.048H437.567C437.543 219.12 437.495 219.192 437.471 219.265L437.711 219.409Z" fill="#BF2C2F"/>
<path d="M427.225 251.927L456.063 269.196L473.476 240.045L460.079 232.301C450.819 246.66 449.04 246.972 434.921 237.833C423.304 230.304 421.019 227.707 425.685 219.024H407.719L398.386 234.61L427.225 251.927Z" fill="#FFA227"/>
<path d="M437.711 219.409L437.447 219.265C436.34 222.319 436.966 225.855 439.371 228.164C442.618 231.266 447.837 231.026 450.988 227.611C451.084 227.49 451.132 227.346 451.229 227.226L437.711 219.409Z" fill="#BF2C2F"/>
<path d="M360.697 299.934L389.536 317.204L418.374 334.473L436.268 304.528L454.163 274.584L425.325 257.315L396.487 240.045L378.592 269.99L360.697 299.934ZM417.628 271.385C431.915 280.645 432.228 282.304 422.679 297.144C413.13 312.008 411.495 312.393 397.208 303.133C382.921 293.873 382.609 292.214 392.157 277.374C401.73 262.51 403.341 262.125 417.628 271.385Z" fill="#BF2C2F"/>
<path d="M738.118 219.048H737.999L738.166 219.144C738.142 219.12 738.118 219.072 738.118 219.048Z" fill="#20C7AB"/>
<path d="M746.465 223.931L754.185 228.38C755.123 226.961 756.109 225.35 757.216 223.45C758.106 221.91 758.875 220.419 759.501 219.024H750.842C750.072 221.886 748.509 223.57 746.465 223.931Z" fill="#20C7AB"/>
<path d="M689.414 225.566C674.79 228.068 674.742 228.212 687.73 231.483C697.303 233.888 700.863 238.867 700.357 249.257C699.901 258.926 697.88 262.63 694.272 260.538C691.29 258.83 690.28 254.982 691.987 251.999C696.918 243.485 681.429 237.448 672.866 244.567C668.633 248.079 667.238 252.167 669.788 253.635C672.337 255.102 677.364 253.947 680.972 251.037C684.988 247.814 685.614 249.45 682.607 255.246C679.913 260.441 672.145 264.819 665.362 264.963C653.985 265.204 653.697 265.612 661.826 270.495C666.661 273.405 675.368 272.852 681.164 269.292C695.571 260.417 696.124 268.619 681.934 280.525C675.223 286.153 666.035 287.62 659.83 284.036C648.502 277.494 635.393 291.204 646.097 298.371C651.123 301.738 650.763 302.364 644.269 301.546C632.796 300.079 622.55 320.378 632.002 325.814C636.307 328.292 641.334 327.762 643.162 324.588C644.99 321.437 643.258 318.983 639.314 319.176C635.369 319.368 633.638 316.915 635.466 313.764C637.294 310.613 641.142 309.387 644.004 311.046C651.532 315.4 659.036 299.91 653.144 292.19C650.426 288.606 653.577 288.534 660.191 292.045C668.296 296.327 678.037 294.162 690.232 285.311L708.295 272.227L695.86 286.73C689.029 294.715 677.845 303.157 671.038 305.514C664.232 307.872 654.9 316.314 650.306 324.275C646 331.707 642.441 334.978 638.087 334.882L663.053 349.289C660.095 342.41 670.533 332.116 684.796 330.312C697.952 328.652 706.707 311.07 697.11 305.539C694.537 304.047 697.616 296.88 703.917 289.568L715.39 276.291L711.301 291.997C707.741 305.683 708.776 305.178 719.262 288.029C733.862 264.193 740.019 233.72 730.158 234.177C726.213 234.369 724.65 231.651 726.67 228.14C728.811 224.436 734.03 225.47 739.153 230.641C745.455 236.991 748.581 236.943 754.234 228.356L746.513 223.907C745.094 224.171 743.434 223.786 741.606 222.752C739.899 221.766 738.84 220.539 738.263 219.168L737.999 219.048H722.798C722.461 220.058 721.547 221.165 720.056 222.391C715.703 225.999 716.352 233.046 721.667 240.021C726.935 246.924 727.223 250.003 722.389 247.622C715.919 244.423 715.462 245.794 720.2 254.404C727.296 267.296 724.073 275.353 714.139 269.605C710.219 267.344 707.501 255.078 708.054 242.354C708.439 233.888 707.308 225.109 705.312 219.072H697.471C703.051 222.56 701.344 223.546 689.414 225.566ZM692.517 316.145C692.565 319.994 688.211 322.495 682.848 321.725C677.484 320.956 667.743 324.612 661.201 329.879C649.801 339.067 649.56 338.971 655.549 327.907C662.62 314.798 692.372 305.346 692.517 316.145Z" fill="#20C7AB"/>
<path d="M1048.12 224.58C1048.6 222.944 1049.4 221.117 1050.5 219.048H1043.51L1042.25 221.189L1048.12 224.58Z" fill="#BF2C2F"/>
<path d="M1098.49 226.384C1108.28 232.036 1111.45 232.301 1119.89 219.048H1112.05C1108.73 221.862 1104.69 222.752 1101.61 220.972C1100.68 220.419 1099.83 219.77 1099.11 219.048H1090.19C1091.49 221.598 1094.21 223.931 1098.49 226.384Z" fill="#BF2C2F"/>
<path d="M1100.58 234.826C1095.39 231.82 1090.02 235.427 1084.66 245.505L1084.61 245.625L1089.68 248.56L1100.58 238.434L1093.89 250.989L1099.23 254.068C1104.91 242.282 1104.93 237.352 1100.58 234.826Z" fill="#BF2C2F"/>
<path d="M1057.14 229.775L1067.92 235.981C1068.35 235.187 1067.53 233.022 1065.58 229.078C1061.47 220.708 1062.12 220.058 1069.96 224.484C1075.01 227.346 1077.03 233.335 1074.46 237.809C1074.17 238.314 1073.81 238.747 1073.43 239.155L1078.81 242.258C1079.1 241.777 1079.39 241.32 1079.68 240.815C1085.93 229.968 1084.9 225.759 1074.44 219.722C1074 219.481 1073.57 219.241 1073.16 219.024H1057.62C1057.29 219.409 1056.95 219.842 1056.69 220.323C1055 223.281 1055.31 226.865 1057.14 229.775Z" fill="#BF2C2F"/>
<path d="M976.328 347.461C982.077 337.528 986.935 335.507 994.608 339.933C1002.28 344.358 1007.14 342.362 1012.89 332.404C1019.14 321.557 1023.33 320.355 1033.79 326.392C1043.36 331.923 1045.19 336.83 1040.59 344.767C1037.11 350.804 1030.85 353.594 1026.5 351.093C1022.2 348.615 1020.15 343.973 1021.98 340.823C1023.81 337.672 1026.76 337.936 1028.59 341.448C1030.4 344.96 1033.38 345.224 1035.21 342.073C1037.04 338.923 1034.99 334.305 1030.69 331.803C1026.33 329.278 1020.05 332.092 1016.59 338.129C1012 346.09 1013.8 350.997 1023.4 356.504C1035.59 363.552 1037.49 362.229 1052.12 336.926C1066.72 311.624 1066.91 309.315 1054.71 302.268C1046.58 297.577 1039.87 297.794 1036.96 302.869C1034.39 307.342 1036.41 313.331 1041.46 316.194C1049.33 320.643 1049.95 319.97 1045.84 311.6C1041.73 303.23 1042.37 302.58 1050.22 307.006C1055.27 309.868 1057.29 315.857 1054.71 320.33C1051.8 325.381 1045.09 325.622 1036.96 320.932C1026.52 314.895 1025.47 310.686 1031.72 299.838C1038.33 288.39 1041.99 287.692 1055.22 295.341C1070.9 304.384 1070.9 304.384 1089.68 271.842C1093.87 264.578 1097.02 258.782 1099.31 254.044L1093.97 250.965L1092.55 253.611C1085.81 266.286 1082.28 267.561 1071.41 261.283C1061.83 255.751 1056.66 256.641 1052.09 264.578C1047.91 271.818 1049.3 277.446 1056.28 281.463C1062.02 284.782 1068.09 285.143 1069.77 282.232C1071.43 279.346 1068.47 276.34 1063.16 275.57C1057.86 274.8 1055.07 271.457 1056.97 268.162C1058.87 264.867 1065.15 264.867 1070.9 268.186C1077.88 272.203 1079.27 277.831 1075.09 285.07C1069.89 294.066 1065.34 293.897 1048.29 284.06C1031.14 274.151 1026.21 274.007 1018.44 283.098C1013.32 289.087 1014.81 283.435 1021.74 270.543C1029.22 256.617 1036.67 248.439 1040.11 250.436C1043.29 252.264 1042.42 256.665 1038.19 260.177C1033.96 263.688 1032.75 267.897 1035.54 269.485C1038.33 271.096 1043.43 267.537 1046.87 261.572C1051.06 254.332 1049.66 248.704 1042.69 244.687C1032.85 239.011 1030.16 242.258 996.243 301.017L967.14 351.333L973.009 354.725C973.586 352.656 974.693 350.299 976.328 347.461ZM996.676 314.029C1001.85 304.095 1008.25 297.217 1010.94 298.756C1013.61 300.295 1019.98 296.663 1025.11 290.675C1033.09 281.342 1033.28 281.968 1026.52 295.1C1022.17 303.518 1016.42 309.146 1013.75 307.607C1011.06 306.068 1004.01 310.926 998.095 318.454C988.041 331.154 987.945 330.865 996.676 314.029ZM1004.83 324.155C1009.13 316.699 1012.09 314.342 1011.37 318.887C1010.67 323.457 1007.14 329.542 1003.55 332.453C999.947 335.339 1000.52 331.611 1004.83 324.155Z" fill="#BF2C2F"/>
<path d="M1056.71 238.434C1048.99 233.96 1046.42 230.497 1048.15 224.58L1042.28 221.189L1035.3 233.287L1053.58 243.846C1068.9 252.697 1072.54 252.721 1078.84 242.306L1073.45 239.204C1070.13 242.859 1064.02 242.643 1056.71 238.434Z" fill="#BF2C2F"/>
<path d="M1076.55 260.73L1088.58 249.594L1089.68 248.56L1084.59 245.625L1076.55 260.73Z" fill="#BF2C2F"/>
<path d="M1061.18 233.672C1065.32 236.005 1067.41 236.895 1067.92 236.005L1057.14 229.799C1058.1 231.315 1059.45 232.685 1061.18 233.672Z" fill="#BF2C2F"/>
<path d="M623.945 264.362C626.807 266.021 633.397 260.057 638.568 251.109C643.739 242.162 645.615 233.479 642.729 231.82C639.867 230.16 633.277 236.125 628.106 245.072C622.935 254.044 621.059 262.702 623.945 264.362Z" fill="#388CBA"/>
<path d="M630.222 289.688C634.744 281.872 633.109 277.133 624.354 272.684C615.238 268.042 614.132 268.451 619.952 274.295C624.186 278.552 626.278 284.469 624.57 287.403C622.863 290.338 620 289.881 618.197 286.369C616.393 282.858 613.41 282.593 611.582 285.744C609.754 288.895 611.799 293.513 616.104 296.014C620.482 298.515 626.735 295.725 630.222 289.688Z" fill="#FFA227"/>
<path d="M649.175 220.66C647.347 223.81 649.392 228.428 653.697 230.93C658.05 233.455 664.328 230.641 667.791 224.604C668.97 222.56 669.715 220.708 670.052 219.048H662.716C662.837 220.323 662.668 221.453 662.163 222.319C660.456 225.253 657.593 224.796 655.789 221.285C655.26 220.251 654.611 219.505 653.937 219.048H650.594C650.065 219.409 649.584 219.938 649.175 220.66Z" fill="#FFA227"/>
<path d="M502.651 224.147C511.767 228.789 512.873 228.38 507.053 222.536C505.994 221.453 505.056 220.275 504.287 219.048H495.917C497.264 220.876 499.476 222.536 502.651 224.147Z" fill="#388CBA"/>
<path d="M499.957 237.881C497.167 236.269 491.587 240.695 487.33 247.766L497.72 253.779C501.689 246.539 502.723 239.492 499.957 237.881Z" fill="#20C7AB"/>
<path d="M497.36 254.452C497.504 254.212 497.6 253.995 497.721 253.755L487.33 247.742C487.186 247.958 487.042 248.175 486.921 248.415C482.616 255.871 481.438 263.328 484.324 264.987C487.162 266.647 493.055 261.908 497.36 254.452Z" fill="#20C7AB"/>
<path d="M465.082 289.207C474.198 293.849 475.304 293.44 469.484 287.596C465.251 283.339 463.158 277.422 464.866 274.488C466.573 271.553 469.436 272.01 471.24 275.522C473.043 279.033 476.026 279.298 477.854 276.147C479.682 272.996 477.637 268.378 473.332 265.877C468.979 263.352 462.701 266.166 459.238 272.203C454.716 280.02 456.351 284.782 465.082 289.207Z" fill="#388CBA"/>
<path d="M1355.82 219.048H1339.13L1348.72 224.604C1350.86 222.68 1353.29 220.804 1355.82 219.048Z" fill="#FFA227"/>
<path d="M1356.08 228.837L1374.77 239.636L1386.68 219.048H1371.21C1370.32 219.577 1369.41 220.082 1368.42 220.611C1362.22 223.858 1358.44 226.143 1356.08 228.837Z" fill="#FFA227"/>
<path d="M1322.58 264.626C1326.19 261.74 1329.7 255.631 1330.4 251.061C1331.09 246.491 1328.16 248.872 1323.85 256.328C1319.55 263.785 1318.97 267.537 1322.58 264.626Z" fill="#20C7AB"/>
<path d="M1337.3 226.143C1347.52 248.752 1328.95 281.631 1305.02 283.291C1298.36 283.748 1297.28 285.648 1300.19 291.637C1310.72 313.187 1291.53 345.729 1266.85 348.158C1265.46 348.303 1264.33 348.543 1263.44 348.904L1273.56 354.749C1283.98 345.465 1300.81 337.022 1304.61 339.235C1307.38 340.823 1302.26 346.018 1293.26 350.756C1287.05 354.003 1283.28 356.312 1280.92 359.006L1299.61 369.805L1374.75 239.66L1356.06 228.861C1352.64 232.782 1352.33 237.592 1352.74 247.718C1353.15 257.892 1351.22 264.915 1348.48 263.328C1345.74 261.74 1344.35 252.648 1345.4 243.124C1346.46 233.599 1347.76 225.398 1348.31 224.917C1348.43 224.796 1348.58 224.7 1348.7 224.58L1339.13 219.048H1337.97C1335.78 220.251 1335.64 222.463 1337.3 226.143ZM1344.78 268.402C1349.4 271.072 1335.83 284.036 1322.39 289.809C1316.61 292.286 1313.82 297.12 1314.57 303.374C1316.35 318.43 1311.76 336.084 1306.83 333.246C1304.37 331.827 1303.65 325.718 1305.21 319.657C1306.78 313.596 1308.99 304.312 1310.12 298.996C1312.48 288.005 1338.67 264.867 1344.78 268.402Z" fill="#FFA227"/>
<path d="M359.302 226.288C362.164 227.947 365.941 226.865 367.648 223.882C368.538 222.343 368.707 220.611 368.298 219.048H356.681C355.767 221.79 356.801 224.845 359.302 226.288Z" fill="#20C7AB"/>
<path d="M368.201 253.13C366.446 244.158 362.213 235.211 358.797 233.239C355.382 231.266 345.497 232.084 336.862 235.043C321.685 240.238 321.252 241.007 324.331 256.737C326.087 265.709 330.32 274.656 333.735 276.628C337.151 278.6 347.036 277.783 355.671 274.824C370.847 269.629 371.28 268.859 368.201 253.13ZM348.888 256.425C354.732 246.299 356.969 245.649 358.917 253.538C360.866 261.403 359.206 264.314 351.413 266.55C343.596 268.811 343.043 266.55 348.888 256.425Z" fill="#388CBA"/>
<path d="M1154.74 279.057C1138.34 269.605 1130.93 266.935 1126.56 269.87L1180.6 301.065C1180.29 296.976 1168.79 287.139 1154.74 279.057Z" fill="#20C7AB"/>
<path d="M1205.61 236.101C1212.76 240.238 1218.29 240.262 1218.24 236.149C1218.19 232.95 1210.74 225.903 1200.47 219.024H1165.23C1167.54 220.203 1170.64 221.381 1174.61 222.704C1184.67 226.047 1198.62 232.06 1205.61 236.101Z" fill="#20C7AB"/>
<path d="M1188.68 305.731L1195.71 309.772C1212.85 280.452 1230.56 249.57 1248.11 219.048H1238.59C1236.52 222.632 1234.43 226.216 1232.34 229.847C1217.14 256.184 1202.44 281.655 1188.68 305.731Z" fill="#388CBA"/>
<path d="M1195.58 281.463C1197.17 278.697 1195.01 272.948 1190.77 268.667C1170.59 248.367 1142.94 239.901 1136.01 251.927C1132.28 258.397 1135.84 261.812 1152.8 268.09C1164.63 272.467 1178.46 278.384 1183.51 281.27C1188.54 284.132 1193.97 284.229 1195.58 281.463Z" fill="#FFA227"/>
<path d="M1208.89 249.546C1207.13 242.499 1171.85 229.174 1155.9 229.511C1148.92 229.655 1155.54 235.74 1175.26 247.261C1203.28 263.664 1212.54 264.29 1208.89 249.546Z" fill="#BF2C2F"/>
<path d="M1115.3 263.352C1123.62 249.089 1132.21 234.273 1141.04 219.048H1130.69C1122.92 232.541 1115.25 245.914 1107.77 258.998L1115.3 263.352Z" fill="#388CBA"/>
<path d="M1032.61 389.143L1040.14 393.496C1053.92 369.853 1068.47 344.743 1083.53 318.647C1094.47 299.694 1105.05 281.198 1115.3 263.328L1107.77 258.974C1082.83 301.955 1056.73 346.956 1032.61 389.143Z" fill="#388CBA"/>
<path d="M1012.69 248.271C1012.65 243.918 1010.51 239.155 1007.98 237.688C999.899 233.022 989.461 242.427 991.866 252.168C994.776 263.809 1012.86 260.417 1012.69 248.271Z" fill="#FFA227"/>
<path d="M1012.53 223.714C1012.98 223.305 1017.05 221.357 1022.24 219.048H1011.66C1011.9 222.151 1012.21 224.003 1012.53 223.714Z" fill="#388CBA"/>
<path d="M988.451 282.449C999.587 277.59 999.466 276.147 987.176 269.052C974.837 261.933 973.466 262.582 973.683 275.402C973.827 283.267 974.404 289.28 974.957 288.798C975.511 288.293 981.596 285.455 988.451 282.449Z" fill="#388CBA"/>
<path d="M144.134 223.257L156.954 230.665C160.73 224.123 162.318 220.611 161.38 219.048H151.639C147.814 219.962 145.457 221.237 144.134 223.257Z" fill="#20C7AB"/>
<path d="M113.3 227.057C120.251 249.45 116.547 255.847 93.6737 261.043C93.0243 261.187 92.423 261.331 91.7255 261.476C71.8586 265.733 67.7939 272.948 75.4664 292.526C75.8993 293.633 76.3563 294.787 76.8855 295.99C79.8438 302.893 80.3008 311.912 77.9197 316.049C75.5386 320.186 67.4812 324.299 60.0251 325.189C58.7263 325.333 57.5237 325.526 56.3211 325.694C45.7143 327.305 39.4367 329.951 36.6467 334.713L44.5838 339.307C46.1953 337.359 48.4802 335.627 51.4386 334.136C55.4312 332.116 60.6264 330.456 67.1926 329.037C88.2139 324.539 91.5571 316.771 82.0326 294.523C80.6616 291.3 79.7476 288.39 79.3628 285.744C78.2324 278.24 81.2629 272.948 89.0076 269.052C93.0002 267.032 98.1954 265.372 104.762 263.953C125.783 259.455 129.126 251.686 119.602 229.438C118.231 226.216 117.317 223.305 116.932 220.66C116.908 220.13 116.836 219.577 116.812 219.048H111.015C111.448 220.948 112.001 222.969 112.723 225.157C112.939 225.831 113.108 226.432 113.3 227.057Z" fill="#20C7AB"/>
<path d="M73.037 236.774C63.0315 241.031 63.296 241.344 75.1536 239.444C82.5375 238.265 88.9594 236.654 89.3923 235.908C89.8252 235.139 87.9492 228.909 85.1832 222.055C84.7503 220.948 84.3414 219.938 83.9806 219.048H81.9843C82.0805 219.577 82.1767 220.154 82.297 220.78C83.9325 229.607 82.0084 232.974 73.037 236.774Z" fill="#BF2C2F"/>
<path d="M10.2858 257.82C-10.7114 262.317 -14.0787 270.086 -4.55417 292.334C-1.74011 298.9 -1.21097 307.318 -3.20727 311.696L3.98423 315.857C5.86027 311.359 5.16277 305.226 2.39681 296.663C-5.58841 272.034 -1.95657 265.757 23.37 260.345C44.3913 255.847 47.7345 248.079 38.21 225.831C37.1998 223.474 36.4783 221.213 36.0453 219.072H30.5375C30.778 219.866 31.0185 220.684 31.2831 221.525C39.2202 246.155 35.6124 252.408 10.2858 257.82Z" fill="#FFA227"/>
<path d="M55.3589 258.83L29.864 266.599L4.36902 274.367L11.0795 299.141L17.7659 323.818L24.0675 327.45L47.6383 320.258L62.0213 315.881L73.1332 312.489L70.1989 301.69L66.4228 287.74L59.7123 262.967L85.2073 255.198L99.5903 250.821L110.702 247.429L107.768 236.63L103.992 222.68L103.03 219.048H94.2508C94.6356 220.467 94.9964 222.006 95.3572 223.69L99.47 242.739L80.2285 247.646C63.729 251.831 60.7465 250.917 59.2553 241.104C58.0046 232.926 59.7604 229.559 65.3645 229.294C70.8483 229.006 72.7003 225.999 71.7142 219.048H44.5837L48.6485 234.08L55.3589 258.83ZM57.7882 288.75L61.901 307.799L42.6596 312.706C26.16 316.891 23.1776 315.977 21.6863 306.164C20.4356 297.986 22.1914 294.619 27.7955 294.354C33.3515 294.09 35.2035 291.011 34.1212 283.844C33.0148 276.556 35.5643 273.141 43.1406 271.698C51.222 270.158 54.6374 274.127 57.7882 288.75Z" fill="#388CBA"/>
<path d="M129.775 235.019C133.263 245.818 134.538 257.435 132.565 260.85C130.593 264.242 119.914 268.98 108.802 271.337C87.805 275.835 84.4377 283.603 93.9622 305.851C96.9206 312.754 97.3776 321.774 94.9965 325.91C92.6153 330.047 84.558 334.16 77.1019 335.05C64.2342 336.589 56.8262 339.283 53.7476 344.575L61.0112 348.76C63.9696 344.599 72.027 340.991 79.5552 340.606C87.4442 340.197 96.7523 334.93 100.24 328.917C103.727 322.904 103.607 312.201 100.023 305.154C96.4155 298.107 95.5737 288.726 98.1232 284.301C100.673 279.875 109.235 275.931 117.124 275.522C125.013 275.113 134.321 269.846 137.809 263.833C141.296 257.82 141.176 247.117 137.592 240.069C133.985 233.022 133.143 223.642 135.692 219.216C135.74 219.144 135.788 219.072 135.837 219H127.346C126.745 223.137 127.635 228.332 129.775 235.019Z" fill="#FFA227"/>
<path d="M143.172 231.772C144.086 237.736 145.698 243.124 146.804 243.749C147.887 244.375 152.48 238.482 156.978 230.665L144.134 223.257C142.836 225.253 142.595 227.947 143.172 231.772Z" fill="#388CBA"/>
<path d="M-38.0822 244.423C-23.0739 254.909 -15.2089 255.992 3.76801 250.075L27.1224 242.811L20.6765 219.048H11.8013L16.756 236.654L-1.90823 242.667C-22.3764 249.257 -36.2062 244.279 -40.0064 228.933C-40.1747 228.26 -40.4152 227.731 -40.6317 227.178L-35.9416 219.048H-48.0397V239.997L-47.4143 238.915C-44.5041 240.334 -41.3292 242.138 -38.0822 244.423Z" fill="#BF2C2F"/>
<path d="M-11.3127 231.435C-0.826138 228.404 0.953699 226.913 -1.45148 219.048H-28.2212C-28.0288 219.986 -27.7883 220.996 -27.4996 222.079C-24.5894 233.888 -23.026 234.802 -11.3127 231.435Z" fill="#388CBA"/>
<path d="M783.168 238.073C783.024 230.208 782.446 224.195 781.893 224.676C781.34 225.157 775.279 228.019 768.4 231.026C766.163 231.988 764.528 232.806 763.205 233.575L782.927 244.952C783.144 243.268 783.216 241.031 783.168 238.073Z" fill="#BF2C2F"/>
<path d="M764.961 261.331C762.074 249.69 743.987 253.057 744.132 265.228C744.18 269.581 746.32 274.343 748.846 275.81C756.927 280.452 767.39 271.072 764.961 261.331Z" fill="#388CBA"/>
<path d="M782.927 245L763.205 233.624C757.938 236.702 759.862 238.771 769.675 244.447C779.151 249.907 782.134 250.724 782.927 245Z" fill="#BF2C2F"/>
</g>
</svg>
